<?xml version="1.0" encoding="UTF-8"?>
<svg width="23px" height="32px" viewBox="0 0 23 32" version="1.1" xmlns="http://www.w3.org/2000/svg" xmlns:xlink="http://www.w3.org/1999/xlink">
  <g stroke="none" stroke-width="1" fill="none" fill-rule="evenodd">
    <g transform="translate(0.000000, -1.000000)" fill="#1389E8">
      <path d="M8.87278448,4.81347656 C10.3847474,4.8549805 11.6144837,6.13354494 11.6144837,7.66381837 L11.6144837,7.66381837 L11.6144837,13.4052734 C12.9421204,12.9443359 14.4028137,13.5366211 15.0414856,14.7902832 C16.4152649,14.1105957 18.0888489,14.6611328 18.7914856,16.0402832 C20.6562317,15.1176757 22.8469055,16.4855957 22.8469055,18.5625 L22.8469055,18.5625 L22.8469055,28.3125 C22.8469055,30.8972168 20.7441224,33 18.1594055,33 L18.1594055,33 L10.5253724,33 C9.23484498,33 7.98826298,32.4599609 7.10569461,31.5187988 L7.10569461,31.5187988 L0.776104797,24.7675781 C-0.31105339,23.6254882 -0.252215515,21.8083496 0.928448547,20.7412109 C2.04734498,19.7297363 3.81736455,19.8076172 4.87449348,20.9143066 L4.87449348,20.9143066 L5.9758118,22.0676269 L5.9758118,7.625 C5.9758118,6.0373535 7.28855598,4.76855469 8.87278448,4.81347656 Z M8.82175911,6.68774412 C8.28757936,6.67285156 7.85056767,7.0981445 7.85056767,7.625 L7.85056767,7.625 L7.85056767,24.4069824 C7.85056767,25.2504882 6.81760867,25.6645507 6.23508917,25.0541992 L6.23508917,25.0541992 L3.5182923,22.2092285 C3.15623173,21.8300781 2.55833136,21.7954101 2.18552861,22.1320801 C1.7900208,22.4899902 1.7726868,23.0961914 2.13523561,23.4760742 C2.15794073,23.5 8.45090948,30.2121582 8.47361455,30.236084 C9.00315555,30.8010254 9.7509583,31.125 10.5253724,31.125 L10.5253724,31.125 L18.1594055,31.125 C19.7101868,31.125 20.9719055,29.8632812 20.9719055,28.3125 L20.9719055,28.3125 L20.9719055,18.5625 C20.9719055,18.0456543 20.5512512,17.625 20.0344055,17.625 C19.5175599,17.625 19.0969055,18.0456543 19.0969055,18.5625 L19.0969055,18.5625 L19.0969055,18.875 C19.0969055,19.3928222 18.6772279,19.8125 18.1594055,19.8125 C17.6415833,19.8125 17.2219055,19.3928222 17.2219055,18.875 L17.2219055,18.875 L17.2219055,17.3125 C17.2219055,16.7956543 16.8012512,16.375 16.2844055,16.375 C15.7675599,16.375 15.3469055,16.7956543 15.3469055,17.3125 L15.3469055,17.3125 L15.3469055,18.875 C15.3469055,19.3928222 14.9272279,19.8125 14.4094055,19.8125 C13.8915833,19.8125 13.4719055,19.3928222 13.4719055,18.875 L13.4719055,18.875 L13.4719055,16.0625 C13.4719055,15.5456543 13.0512512,15.125 12.5344055,15.125 C12.0783509,15.125 11.6979798,15.4521484 11.6144837,15.8842774 L11.6144837,15.8842774 L11.6144837,18.875 C11.6144837,19.3945312 11.1908997,19.8173828 10.6681946,19.8120117 C10.1447571,19.8173828 9.72190555,19.3942871 9.72190555,18.875 L9.72190555,18.875 L9.72198988,18.2462546 C9.72200835,18.1816342 9.72202978,18.1186983 9.72205408,18.0573846 L9.72295531,16.9868922 C9.72301544,16.945237 9.72307782,16.9047679 9.72314236,16.8654228 L9.72377951,16.5399799 C9.72385629,16.5068176 9.72393498,16.4745923 9.72401549,16.4432417 L9.72478694,16.1830237 C9.7248776,16.1563612 9.72496982,16.1303865 9.72506352,16.1050375 L9.72594429,15.8921064 C9.72604605,15.8699505 9.72614903,15.8482334 9.72625314,15.8268928 L9.72689064,15.7028686 C9.72699891,15.6827848 9.72710814,15.6629528 9.72721823,15.6433105 L9.72788852,15.527234 C9.72800174,15.5081011 9.72811565,15.4890332 9.72823017,15.4699681 L9.72892389,15.3551125 C9.72904049,15.3358094 9.72915753,15.3163845 9.72927491,15.2967754 L9.72998268,15.176414 C9.73033795,15.1146306 9.73069478,15.0500692 9.73105084,14.9810484 L9.73176121,14.8365623 C9.7318792,14.8113242 9.73199693,14.785466 9.73211431,14.7589255 L9.73281375,14.5909956 C9.7329294,14.5614765 9.73304453,14.5311504 9.73315905,14.4999551 L9.73383818,14.3018547 C9.73394993,14.2669334 9.73406089,14.2310184 9.73417099,14.1940473 L9.73482045,13.9590496 C9.73492673,13.9176051 9.73503197,13.8749799 9.73513608,13.8311118 L9.7357465,13.55249 C9.73584575,13.5034011 9.7359437,13.4529448 9.73604026,13.4010586 L9.73686949,12.8937975 C9.73695694,12.8327721 9.73704275,12.7701301 9.73712682,12.7058092 L9.73783424,12.0799084 C9.73790711,12.0049535 9.73797799,11.9281327 9.73804679,11.8493839 L9.73891177,10.5157624 C9.73895757,10.416176 9.73900087,10.31435 9.73904156,10.2102224 L9.73948367,7.66381837 C9.73948367,7.13940431 9.32786261,6.70166012 8.82175911,6.68774412 Z M8.81565555,1 C12.8920716,1 16.0009583,4.67822263 15.3158997,8.70629881 C15.2289856,9.21679688 14.7448548,9.56054688 14.2343567,9.47338869 C13.7238587,9.38647463 13.380597,8.90234375 13.4672669,8.39184569 C13.9596985,5.49780275 11.7241029,2.875 8.81565555,2.875 C5.89841923,2.875 3.6667298,5.51025388 4.16599736,8.40332031 C4.25388798,8.91357425 3.91184698,9.3984375 3.40159305,9.48657225 C2.8932923,9.57446288 2.40647586,9.23388675 2.31834111,8.722168 C1.62009892,4.67773438 4.74387823,1 8.81565555,1 Z"></path>
    </g>
  </g>
</svg>
