<?xml version="1.0" encoding="UTF-8"?>
<svg width="16px" height="15px" viewBox="0 0 16 15" version="1.1" xmlns="http://www.w3.org/2000/svg" xmlns:xlink="http://www.w3.org/1999/xlink">
  <g stroke="none" stroke-width="1" fill-rule="evenodd">
    <g transform="translate(-236.000000, -154.000000)">
      <g transform="translate(29.000000, 101.000000)">
        <g transform="translate(193.000000, 44.000000)">
          <path d="M29.6598271,15.5149668 C29.3087638,15.2807888 28.834398,15.3756212 28.6003727,15.7266845 L28.5776578,15.760757 C28.3013094,11.9864572 25.1424018,9 21.2987858,9 C17.274214,9 14,12.274265 14,16.2988367 C14,20.3234084 17.274214,23.5976225 21.2987858,23.5976225 C21.8613631,23.5976225 22.3173939,23.1415916 22.3173939,22.5790143 C22.3173939,22.0164371 21.8613631,21.5604062 21.2987858,21.5604062 C18.3975351,21.5603553 16.0372163,19.2000364 16.0372163,16.2988367 C16.0372163,13.397637 18.3975351,11.0372672 21.2987858,11.0372672 C23.9878094,11.0372672 26.2117875,13.0650614 26.5227686,15.6717306 C26.2776406,15.3666065 25.8359211,15.2937251 25.5041605,15.5149668 C25.1530972,15.749043 25.0583157,16.2234088 25.2923918,16.5744211 L26.8051268,18.8429124 C26.9836379,19.1106027 27.274094,19.2704223 27.5820702,19.2704223 C27.8900463,19.2704223 28.1804515,19.1105517 28.3588607,18.8429124 L29.8715957,16.5744211 C30.1056209,16.2233578 30.0108394,15.749043 29.6598271,15.5149668 Z" fill-rule="nonzero"></path>
        </g>
      </g>
    </g>
  </g>
</svg>
